name Walk8.mot
datacolumns 19
datarows 12
range 1.45000000 1.46100000
endheader

                time	   L_ground_force_vx	   L_ground_force_vy	   L_ground_force_vz	   L_ground_force_px	   L_ground_force_py	   L_ground_force_pz	   R_ground_force_vx	   R_ground_force_vy	   R_ground_force_vz	   R_ground_force_px	   R_ground_force_py	   R_ground_force_pz	   L_ground_torque_x	   L_ground_torque_y	   L_ground_torque_z	   R_ground_torque_x	   R_ground_torque_y	   R_ground_torque_z	
          1.45000000	          0.00000000	          0.00000000	          0.00000000	          0.00000000	          0.00000000	          0.00000000	         16.34821922	        565.49249710	         38.52507842	         -0.29429180	          0.00000000	         -0.09347561	          0.00000000	          0.00000000	          0.00000000	          0.00000000	          0.12420606	          0.00000000	
          1.45100000	          0.00000000	          0.00000000	          0.00000000	          0.00000000	          0.00000000	          0.00000000	         16.84803003	        567.42276096	         38.66748375	         -0.29408995	          0.00000000	         -0.09349475	          0.00000000	          0.00000000	          0.00000000	          0.00000000	          0.11474983	          0.00000000	
          1.45200000	          0.00000000	          0.00000000	          0.00000000	          0.00000000	          0.00000000	          0.00000000	         17.34056644	        569.37818098	         38.81544954	         -0.29386813	          0.00000000	         -0.09354808	          0.00000000	          0.00000000	          0.00000000	          0.00000000	          0.11180587	          0.00000000	
          1.45300000	          0.00000000	          0.00000000	          0.00000000	          0.00000000	          0.00000000	          0.00000000	         17.81009467	        571.36183082	         38.98137178	         -0.29363466	          0.00000000	         -0.09361872	          0.00000000	          0.00000000	          0.00000000	          0.00000000	          0.11830795	          0.00000000	
          1.45400000	          0.00000000	          0.00000000	          0.00000000	          0.00000000	          0.00000000	          0.00000000	         18.24996011	        573.34465440	         39.16972986	         -0.29340377	          0.00000000	         -0.09371282	          0.00000000	          0.00000000	          0.00000000	          0.00000000	          0.13572891	          0.00000000	
          1.45500000	          0.00000000	          0.00000000	          0.00000000	          0.00000000	          0.00000000	          0.00000000	         18.66106299	        575.25195551	         39.37613376	         -0.29318999	          0.00000000	         -0.09383247	          0.00000000	          0.00000000	          0.00000000	          0.00000000	          0.16060353	          0.00000000	
          1.45600000	          0.00000000	          0.00000000	          0.00000000	          0.00000000	          0.00000000	          0.00000000	         19.04991248	        577.02551882	         39.58947595	         -0.29300690	          0.00000000	         -0.09395177	          0.00000000	          0.00000000	          0.00000000	          0.00000000	          0.18296164	          0.00000000	
          1.45700000	          0.00000000	          0.00000000	          0.00000000	          0.00000000	          0.00000000	          0.00000000	         19.43125885	        578.68278310	         39.79732369	         -0.29285910	          0.00000000	         -0.09403380	          0.00000000	          0.00000000	          0.00000000	          0.00000000	          0.19164034	          0.00000000	
          1.45800000	          0.00000000	          0.00000000	          0.00000000	          0.00000000	          0.00000000	          0.00000000	         19.82803004	        580.29271161	         39.99334444	         -0.29272949	          0.00000000	         -0.09405783	          0.00000000	          0.00000000	          0.00000000	          0.00000000	          0.18038519	          0.00000000	
          1.45900000	          0.00000000	          0.00000000	          0.00000000	          0.00000000	          0.00000000	          0.00000000	         20.26144328	        581.92144193	         40.18067685	         -0.29258396	          0.00000000	         -0.09402854	          0.00000000	          0.00000000	          0.00000000	          0.00000000	          0.15114803	          0.00000000	
          1.46000000	          0.00000000	          0.00000000	          0.00000000	          0.00000000	          0.00000000	          0.00000000	         20.73854709	        583.63272055	         40.36982452	         -0.29239848	          0.00000000	         -0.09396949	          0.00000000	          0.00000000	          0.00000000	          0.00000000	          0.11543891	          0.00000000	
          1.46100000	          0.00000000	          0.00000000	          0.00000000	          0.00000000	          0.00000000	          0.00000000	         21.24951103	        585.48958944	         40.57115334	         -0.29218083	          0.00000000	         -0.09390900	          0.00000000	          0.00000000	          0.00000000	          0.00000000	          0.08884898	          0.00000000	
